<?xml version="1.0" encoding="utf-8"?>
<!-- Generator: Adobe Illustrator 16.0.0, SVG Export Plug-In . SVG Version: 6.00 Build 0)  -->
<!DOCTYPE svg PUBLIC "-//W3C//DTD SVG 1.1//EN" "http://www.w3.org/Graphics/SVG/1.1/DTD/svg11.dtd">
<svg version="1.1" id="Layer_1" xmlns="http://www.w3.org/2000/svg" xmlns:xlink="http://www.w3.org/1999/xlink" x="0px" y="0px"
	 width="520px" height="512px" viewBox="-4 0 520 512" enable-background="new -4 0 520 512" xml:space="preserve">
<path fill="#004C72" d="M477.742,376.67c0.596-0.652,1.059-1.406,1.363-2.219c45.856-74.248,45.856-165.816,0-240.063
	c-0.307-0.813-0.77-1.566-1.363-2.219C444.421,79.495,390.991,40.658,328.273,23.52c-0.641-0.273-1.313-0.459-2.01-0.557
	c-45.291-11.975-93.238-11.975-138.532,0c-0.683,0.091-1.35,0.269-1.983,0.529C123.018,40.629,69.578,79.478,36.259,132.168
	c-0.598,0.653-1.06,1.406-1.365,2.219c-45.86,74.248-45.86,165.815,0,240.063c0.305,0.812,0.767,1.565,1.365,2.219
	c33.293,52.651,86.678,91.481,149.354,108.642c0.662,0.278,1.363,0.466,2.083,0.559c45.307,11.979,93.267,11.979,138.573,0
	c0.76-0.091,1.494-0.283,2.188-0.58C391.102,468.119,444.457,429.3,477.742,376.67L477.742,376.67z M263,492.824V393h95.652
	c-10.4,38.04-25.364,69.648-43.564,92C298.097,489.664,280.611,492.291,263,492.824z M196.912,484.992
	c-18.2-22.344-33.164-53.948-43.564-92H249v99.824C231.389,492.282,213.903,489.656,196.912,484.992z M33.176,276.992H64V332
	c0.002,3.865,3.135,6.998,7,7h57.26c1.856,13.691,4.264,27.08,7.2,40h-73.9c-17.569-31.205-27.309-66.205-28.384-102V276.992
	L33.176,276.992z M61.576,160.992h73.888c-2.94,12.92-5.348,26.312-7.2,40H71c-3.868,0.002-7.002,3.14-7,7.008v55H33.176
	c1.075-35.795,10.815-70.795,28.384-102L61.576,160.992z M249,47.176V147h-95.652c10.4-38.04,25.364-69.648,43.564-92
	C213.903,50.336,231.389,47.709,249,47.176L249,47.176z M315.088,55.008c18.2,22.344,33.164,53.948,43.564,92H263V47.176
	C280.611,47.712,298.098,50.341,315.088,55.008z M478.824,263.008H448V208c-0.002-3.865-3.135-6.998-7-7h-57.26
	c-1.856-13.692-4.267-27.08-7.2-40h73.9c17.567,31.205,27.309,66.205,28.384,102V263.008L478.824,263.008z M450.424,379.008h-73.888
	c2.938-12.92,5.348-26.313,7.2-40H441c3.868-0.002,7.002-3.14,7-7.008v-55h30.824c-1.075,35.795-10.814,70.795-28.384,102
	L450.424,379.008z M262.984,379.008v-40H369.6c-1.916,13.725-4.397,27.116-7.445,40H262.984z M78,325V215h356v110H78z M369.6,201
	H263v-40h99.164C365.2,173.88,367.692,187.276,369.6,201z M248.988,161v40H142.4c1.916-13.724,4.4-27.116,7.448-40H248.988z
	 M142.4,339H249v40h-99.164C146.8,366.116,144.308,352.725,142.4,339L142.4,339z M337.824,477.4
	c16.068-26.138,27.983-54.608,35.318-84.4H441.9c-25.283,38.081-61.604,67.524-104.088,84.384L337.824,477.4z M441.9,147H373.13
	c-7.338-29.791-19.253-58.262-35.319-84.4c42.483,16.868,78.799,46.316,104.075,84.4H441.9z M171.555,61.601
	c-16.068,26.137-27.983,54.609-35.32,84.4H67.466c25.28-38.081,61.594-67.525,104.076-84.388L171.555,61.601z M70.112,393h68.756
	c7.333,29.791,19.248,58.264,35.316,84.4C131.702,460.531,95.39,431.083,70.112,393z"/>
<text transform="matrix(0.9784 0 0 1 98.5 299.0859)" fill="#004C72" font-family="'Yantramanav-Regular'" font-size="100">Https://</text>
<g>
	<g>
		<g id="XMLID_1_">
			<g>
				<polygon fill="#FFFFFF" points="427.61,394.029 391.82,396.3 412.12,442.58 399.53,448.11 379.22,401.83 353.31,426.62 
					353.36,325.75 				"/>
				<path d="M449.42,401.74l-44.07,2.8l18.74,42.71l-29.229,12.83l-18.74-42.721l-31.9,30.528l0.07-142.817L449.42,401.74z
					 M391.82,396.3l35.79-2.271l-74.25-68.279l-0.053,100.87l25.91-24.79l20.313,46.28l12.59-5.53L391.82,396.3z"/>
			</g>
			<g>
				<polygon fill="none" stroke="#000000" stroke-miterlimit="10" points="449.42,401.74 344.29,305.07 344.22,447.89 
					376.12,417.359 394.86,460.08 424.09,447.25 405.35,404.54 				"/>
				<polygon fill="none" stroke="#000000" stroke-miterlimit="10" points="412.12,442.58 399.53,448.11 379.22,401.83 
					353.31,426.62 353.36,325.75 427.61,394.029 391.82,396.3 				"/>
			</g>
		</g>
	</g>
</g>
</svg>
