<?xml version="1.0" encoding="utf-8"?>
<!-- Generator: Adobe Illustrator 16.0.0, SVG Export Plug-In . SVG Version: 6.00 Build 0)  -->
<!DOCTYPE svg PUBLIC "-//W3C//DTD SVG 1.1//EN" "http://www.w3.org/Graphics/SVG/1.1/DTD/svg11.dtd">
<svg version="1.1" id="Layer_1" xmlns="http://www.w3.org/2000/svg" xmlns:xlink="http://www.w3.org/1999/xlink" x="0px" y="0px"
	 width="512px" height="512px" viewBox="0 0 512 512" enable-background="new 0 0 512 512" xml:space="preserve">
<path fill="#004C72" d="M477.742,362.67c0.596-0.652,1.059-1.406,1.363-2.219c45.857-74.248,45.857-165.816,0-240.063
	c-0.306-0.813-0.769-1.566-1.363-2.219C444.421,65.495,390.991,26.658,328.273,9.52c-0.64-0.273-1.313-0.459-2.009-0.557
	c-45.292-11.975-93.238-11.975-138.532,0c-0.683,0.091-1.35,0.269-1.983,0.529C123.018,26.629,69.578,65.478,36.259,118.168
	c-0.598,0.653-1.06,1.406-1.365,2.219c-45.86,74.248-45.86,165.815,0,240.063c0.305,0.812,0.767,1.565,1.365,2.219
	c33.293,52.651,86.678,91.481,149.354,108.642c0.662,0.278,1.363,0.465,2.083,0.558c45.307,11.979,93.267,11.979,138.573,0
	c0.759-0.091,1.494-0.283,2.188-0.58C391.102,454.119,444.457,415.3,477.742,362.67L477.742,362.67z M263,478.824V379h95.652
	c-10.4,38.04-25.364,69.648-43.564,92C298.097,475.664,280.611,478.291,263,478.824z M196.912,470.992
	c-18.2-22.344-33.164-53.948-43.564-92H249v99.824C231.389,478.282,213.903,475.656,196.912,470.992z M33.176,262.992H64V318
	c0.002,3.865,3.135,6.998,7,7h57.26c1.856,13.691,4.264,27.08,7.2,40h-73.9c-17.569-31.205-27.309-66.205-28.384-102V262.992
	L33.176,262.992z M61.576,146.992h73.888c-2.94,12.92-5.348,26.312-7.2,40H71c-3.868,0.002-7.002,3.14-7,7.008v55H33.176
	c1.075-35.795,10.815-70.795,28.384-102L61.576,146.992z M249,33.176V133h-95.652c10.4-38.04,25.364-69.648,43.564-92
	C213.903,36.336,231.389,33.709,249,33.176L249,33.176z M315.088,41.008c18.2,22.344,33.164,53.948,43.564,92H263V33.176
	C280.611,33.712,298.098,36.341,315.088,41.008z M478.824,249.008H448V194c-0.002-3.865-3.135-6.998-7-7h-57.26
	c-1.856-13.692-4.266-27.08-7.2-40h73.9c17.568,31.205,27.309,66.205,28.384,102V249.008L478.824,249.008z M450.424,365.008h-73.888
	c2.938-12.92,5.348-26.313,7.2-40H441c3.868-0.002,7.002-3.14,7-7.008v-55h30.824c-1.075,35.795-10.814,70.795-28.384,102
	L450.424,365.008z M262.984,365.008v-40H369.6c-1.916,13.725-4.398,27.116-7.446,40H262.984z M78,311V201h356v110H78z M369.6,187
	H263v-40h99.164C365.2,159.88,367.692,173.276,369.6,187z M248.988,147v40H142.4c1.916-13.724,4.4-27.116,7.448-40H248.988z
	 M142.4,325H249v40h-99.164C146.8,352.116,144.308,338.725,142.4,325L142.4,325z M337.824,463.4
	c16.069-26.137,27.984-54.608,35.319-84.4H441.9c-25.283,38.081-61.603,67.524-104.088,84.384L337.824,463.4z M441.9,133h-68.77
	c-7.338-29.791-19.253-58.262-35.319-84.4c42.483,16.868,78.798,46.316,104.075,84.4H441.9z M171.555,47.601
	c-16.068,26.137-27.983,54.609-35.32,84.4H67.466c25.28-38.081,61.594-67.525,104.076-84.388L171.555,47.601z M70.112,379h68.756
	c7.333,29.791,19.248,58.264,35.316,84.4C131.702,446.531,95.39,417.083,70.112,379z"/>
<text transform="matrix(0.9784 0 0 1 98.5 285.0859)" fill="#004C72" font-family="'Yantramanav-Regular'" font-size="100">Https://</text>
<g>
	<g>
		<g id="XMLID_1_">
			<g>
				<polygon fill="#FFFFFF" points="427.61,380.029 391.82,382.3 412.12,428.58 399.53,434.11 379.22,387.83 353.31,412.62 
					353.36,311.75 				"/>
				<path d="M449.42,387.74l-44.07,2.8l18.74,42.71l-29.229,12.83l-18.74-42.721l-31.9,30.529l0.07-142.818L449.42,387.74z
					 M391.82,382.3l35.79-2.271l-74.25-68.279l-0.052,100.87l25.91-24.79l20.312,46.28l12.59-5.53L391.82,382.3z"/>
			</g>
			<g>
				<polygon fill="none" stroke="#000000" stroke-miterlimit="10" points="449.42,387.74 344.29,291.07 344.22,433.89 
					376.12,403.359 394.86,446.08 424.09,433.25 405.35,390.54 				"/>
				<polygon fill="none" stroke="#000000" stroke-miterlimit="10" points="412.12,428.58 399.53,434.11 379.22,387.83 
					353.31,412.62 353.36,311.75 427.61,380.029 391.82,382.3 				"/>
			</g>
		</g>
	</g>
</g>
</svg>
